<svg xmlns="http://www.w3.org/2000/svg" viewBox="0 0 24 24" style="enable-background:new 0 0 24 24" xml:space="preserve"><path d="M19 8.5c0 1.4-1.1 2.5-2.5 2.5-.3 0-.5 0-.8-.1.4 2.2 1.4 4.1 3.1 5.9.3.3.3.8 0 1.1-.3.3-.8.3-1.1 0-2.5-2.6-3.7-5.7-3.7-9.2v-.2C14.1 7 15.2 6 16.5 6 17.9 6 19 7.1 19 8.5zm-9 0C10 9.9 8.9 11 7.5 11c-.3 0-.5 0-.8-.1.4 2.2 1.4 4.1 3.1 5.9.3.3.3.8 0 1.1s-.8.3-1.1 0C6.2 15.2 5 12.1 5 8.5v-.2C5.1 7 6.2 6 7.5 6 8.9 6 10 7.1 10 8.5zm5.5 0v.1c.1.5.5.9 1 .9.6 0 1-.4 1-1s-.4-1-1-1c-.5 0-1 .4-1 1zm-9 0v.1c.1.5.5.9 1 .9.6 0 1-.4 1-1s-.4-1-1-1c-.5 0-1 .4-1 1z" style="fill:#212121"/></svg>